<svg width="1681" height="807" viewBox="0 0 1681 807" fill="none" xmlns="http://www.w3.org/2000/svg">
<path d="M183.009 356.804C180.437 358.692 177.998 360.668 175.529 362.759C160.345 375.541 151.535 391.064 137.665 408.431C131.115 416.389 123.893 423.907 115.02 431.438C108.387 437.051 102.73 441.416 97.6122 445.135C79.4621 458.239 67.9154 463.365 43.6744 482.497C41.8307 483.973 39.9548 485.545 38.0295 487.255C32.5041 492.167 27.2869 497.128 22.9814 502.163C23.285 501.802 23.6886 501.281 24.1338 500.474C24.6342 499.549 25.3132 498.08 25.5391 495.877C25.8225 493.5 25.1528 490.509 24.0188 488.577C22.8174 486.489 21.7432 485.613 20.9184 484.945C20.0123 484.26 19.623 484.082 19.2058 483.866C18.7998 483.668 18.5987 483.597 18.445 483.541C18.1361 483.434 18.1283 483.45 18.201 483.469C18.6074 483.592 20.0957 483.819 21.5334 483.955C24.5256 484.247 27.9273 484.407 31.2799 484.544C38.0465 484.807 44.7973 484.974 51.3008 485.173C64.2454 485.55 76.0918 486.036 85.8187 486.272C91.6999 486.406 96.8478 486.289 100.977 485.871C121.735 483.7 123.855 491.482 153.466 489.935C180.587 488.466 197.959 489.137 220.583 491.122C222.693 491.302 224.742 491.49 226.92 491.683C238.002 492.665 258.249 493.441 281.002 492.423C297.254 492.355 314.764 490.646 329.943 489.442C342.321 488.283 353.441 487.046 360.944 485.881C365.043 485.23 369.205 484.767 373.452 484.448C373.919 484.416 374.281 484.274 373.847 484.388C373.633 484.458 373.128 484.648 372.518 485.19C371.905 485.717 371.406 486.568 371.244 487.071C371.067 487.59 371.078 487.785 371.072 487.784C371.072 487.783 371.075 487.606 371.061 487.359C371.033 486.855 370.951 486.088 370.863 485.26C368.469 462.882 369.868 440.469 369.408 425.647C369.386 424.892 369.368 424.16 369.352 423.439L369.356 423.472C369.28 420.535 369 418.016 368.897 415.505C368.843 413.743 368.931 412.197 369.038 410.813C369.167 409.208 369.624 408.453 370.116 408.419C370.117 408.419 370.117 408.419 370.117 408.419C370.734 408.376 371.401 409.481 371.628 411.476C371.761 412.618 371.924 413.817 372.161 415.037C372.628 417.324 373.355 420.058 373.844 422.986L373.847 423.013C375.228 431.452 377.064 441.649 379.61 452.902C382.699 466.524 383.819 474.975 384.628 483.621C384.652 485.388 385.415 486.632 384.324 491.225C383.776 493.709 380.629 496.619 378.646 497.112C376.617 497.815 375.289 497.831 374.033 497.877C364.781 497.979 353.65 498.13 335.726 500.497C334.058 500.71 332.405 500.921 330.762 501.124C312.751 503.317 297.766 506.294 281.424 507.697C264.382 509.909 244.692 511.16 220.661 510.181C218.389 510.091 216.025 509.986 213.581 509.865C163.893 507.198 151.125 518.344 84.9368 511.76C82.35 511.469 79.6845 511.166 76.9389 510.849C61.6934 509.104 49.1811 508.663 38.2453 508.62C32.7282 508.594 27.6508 508.697 22.5254 508.682C19.9324 508.656 17.4234 508.658 14.226 508.292C12.6027 508.027 11.0084 508.051 7.47926 506.419C6.62879 505.987 5.36542 505.285 3.95792 503.923C2.60696 502.673 0.60387 499.853 0.148163 496.536C-0.343198 493.053 0.480435 490.609 1.26176 488.852C2.02735 487.224 2.66464 486.37 3.35929 485.49C10.2115 475.926 17.2604 467.954 25.8017 459.534C36.2007 449.281 48.0986 438.433 64.838 423.281C67.252 421.094 69.6905 418.875 72.1485 416.625C84.5733 405.209 98.2162 393.113 110.664 381.417C124.796 367.701 140.569 352.594 156.337 340.263C175.775 324.422 195.488 309.85 210.929 299.028C216.695 294.941 222.113 291.635 226.711 288.845C230.564 286.501 234.567 284.214 237.768 282.123C239.327 281.108 240.696 280.065 241.14 279.59C241.362 279.37 241.302 279.324 240.967 279.789C240.644 280.225 240.071 281.345 239.871 282.604C239.434 285.131 240.016 287.656 240.371 288.586C240.746 289.617 240.893 289.783 240.871 289.781C240.817 289.712 240.273 288.933 239.684 288.156C230.817 276.195 219.623 264.342 207.467 249.914C196.808 238.612 181.264 223.613 167.57 209.357C162.651 204.291 158.073 199.293 153.44 194.532C150.492 191.491 147.394 188.43 144.178 185.329C129.901 171.628 113.949 157.332 97.6048 143.248C95.1331 141.129 92.665 139.03 90.1439 136.879C88.8779 135.797 87.6118 134.717 86.2398 133.511C85.5436 132.895 84.8536 132.288 83.9407 131.414C83.4648 130.948 83.006 130.528 82.0836 129.468C81.8383 129.179 81.5798 128.871 81.2023 128.363C81.1118 128.24 81.0182 128.111 80.9212 127.972C80.8043 127.805 80.6812 127.623 80.5531 127.425C80.2952 127.02 80.0315 126.603 79.6295 125.81C79.4401 125.432 79.2473 125.015 79.0452 124.509C78.7964 123.882 78.544 123.145 78.33 122.248C77.9854 120.55 77.2027 117.289 79.0948 112.433C80.9194 107.758 85.156 104.865 87.0516 104.063C89.4629 102.979 90.4515 102.89 91.5597 102.683C99.8417 101.472 104.908 101.349 109.948 100.22C130.171 96.047 150.461 91.6863 171.06 88.3992C180.501 86.9174 190.211 85.0778 200.209 83.6773C202.889 83.302 205.639 82.9406 208.455 82.6111C225.047 80.6918 243.438 78.222 262.368 76.3456C276.644 75.0851 291.352 71.4997 305.795 67.3902C324.459 61.9998 342.783 56.9875 357.531 51.1711C373.5 44.4991 387.368 36.2745 398.797 31.0512C402.313 29.4423 405.727 27.9561 409.41 26.8578C411.293 26.3257 413.228 25.8058 415.83 25.7927C417.143 25.8129 418.754 25.9578 420.552 26.8595C422.384 27.7423 423.933 29.6047 424.541 31.2618C426.757 38.9607 426.331 43.3798 426.906 48.4747C428.15 65.2194 428.085 77.8822 429.004 98.225C429.172 102.364 429.363 106.893 429.581 111.779C430.515 132.845 430.254 160.673 428.36 186.25C428.028 190.769 427.646 195.148 427.211 199.473C425.741 213.965 423.538 210.699 422.392 196.124C422.127 192.738 421.926 189.495 421.765 186.297C420.906 169.434 421.161 155.548 418.791 146.313C413.978 127.599 411.703 118.044 412.907 98.4275C413.109 95.0767 413.407 91.4525 413.792 87.4438C415.386 70.6413 413.013 59.519 410.266 50.4467C409.502 47.7822 408.771 45.2414 408.125 42.9265C407.802 41.7735 407.497 40.6723 407.231 39.782C407.099 39.3392 406.976 38.954 406.887 38.7112C406.805 38.4773 406.732 38.3654 406.869 38.7047C407.555 40.9013 411.001 44.1337 413.371 44.6478C415.583 45.2797 416.266 45.0032 416.589 44.9557C416.887 44.8645 416.758 44.7975 416.536 44.7809C416.047 44.749 415.131 44.8748 414.105 45.095C412.031 45.5417 409.392 46.3489 405.849 47.832C398.516 50.6865 388.343 57.2284 365.727 68.8386C356.276 73.3566 345.546 77.5185 332.61 82.5167C325.866 85.1102 319.396 87.5194 313.235 89.8248C296.678 95.9912 280.974 100.814 266.09 103.229C245.472 106.817 228.25 110.371 213.237 113.112C199.726 115.644 187.899 118.654 177.114 120.783C176.988 120.809 176.861 120.834 176.734 120.859C162.555 123.657 140.651 127.491 116.145 131.677C108.731 133.038 100.828 133.15 96.3268 133.691C97.2958 133.508 98.157 133.439 100.387 132.453C102.145 131.707 106.095 129.114 107.954 124.7C109.878 120.102 109.21 116.882 108.881 115.195C108.69 114.345 108.462 113.655 108.24 113.078C108.033 112.547 107.881 112.221 107.714 111.878C107.553 111.552 107.388 111.251 107.264 111.038C107.15 110.84 107.043 110.667 106.944 110.512C106.743 110.199 106.581 109.974 106.468 109.82C106.22 109.486 106.077 109.32 105.971 109.197C105.585 108.766 105.696 108.923 105.805 109.035C106.07 109.319 106.589 109.822 107.109 110.312C108.171 111.314 109.369 112.408 110.569 113.501C112.972 115.686 115.441 117.914 117.913 120.148C129.651 130.788 141.154 141.294 152.105 150.828C156.163 154.367 160.633 158.338 165.409 162.691C173.149 169.648 181.998 178.469 190.224 186.721C203.727 200.272 217.103 212.661 232.586 229.284C243.621 242.42 256.158 255.96 265.907 269.152C266.722 270.26 267.563 271.352 268.758 273.305C269.355 274.321 270.09 275.54 270.904 277.758C271.698 279.858 272.521 283.736 271.892 287.56C270.478 296.431 265.333 301.401 262.41 304.117C259.227 306.944 256.706 308.582 254.446 310.094C249.977 313.009 246.545 315.08 243.608 317.051C238.227 320.629 234.172 323.513 230.721 326.068C211.276 340.715 205.488 340.507 183.009 356.804Z" fill="white"/>
<path d="M475.673 449.883C470.283 467.376 479.744 483.177 474.757 504.755C469.786 526.261 463.114 528.62 460.718 553.777C460.443 556.735 460.045 559.949 459.635 562.84C456.516 584.733 450.544 604.55 451.376 614.701C452.446 625.806 444.295 626.795 444.524 641.144C444.53 641.27 444.536 641.397 444.542 641.526C445.294 657.696 443.749 666.977 440.79 680.781C440.021 684.372 439.235 689.859 438.581 696.38C437.747 704.296 436.771 712.732 436.531 721.397L436.531 721.354C436.212 734.012 436.478 746.147 437.784 753.025C440.591 767.981 435.791 784.749 433.727 795.762L433.732 795.674C433.638 796.164 433.555 796.648 433.484 797.119C432.997 800.378 432.462 803.002 431.893 805.007C431.653 805.858 431.153 806.252 430.658 806.252C430.658 806.252 430.658 806.252 430.657 806.252C430.042 806.253 429.436 805.641 429.36 804.545C429.192 802.065 428.874 799.034 428.512 795.449L428.517 795.375C428.164 791.53 427.383 786.836 426.279 781.843C422.362 764.343 426.963 762.497 424.991 738.859C424.452 732.478 423.748 726.757 423.067 721.283L423.068 721.204C422.047 712.859 421.515 704.219 421.463 696.021C421.368 689.193 421.729 681.717 422.938 672.915C424.877 658.832 423.238 649.939 422.066 639.902C421.248 628.179 421.838 617.479 427.81 598.519C433.65 580.355 434.125 569.571 433.485 558.896C432.776 547.432 430.776 536.057 433.016 515.829C437.332 476.881 451.466 429.123 454.534 405.738C457.6 382.357 461.072 350.858 467.846 318.055C470.448 305.469 472.437 291.447 474.371 277.164C477.52 254.112 480.474 230.088 486.365 207.657C487.523 203.249 488.937 198.273 490.093 194.053C495.269 174.274 500.404 151.228 506.239 131.575C510.246 118.05 514.148 106.244 517.1 98.0039C519.332 91.7678 521.167 86.8009 522.635 82.5146C527.459 70.2575 530.459 63.72 535.407 47.4493C538.127 38.6507 542.361 27.9136 547.334 17.6037C549.565 12.9738 551.948 8.46607 554.369 4.25104C558.168 -2.60578 559.866 -0.414555 558.335 7.50231C557.39 12.2649 556.084 16.5127 554.938 20.329C553.326 25.687 552.016 30.1736 552.309 33.98C553.306 46.9872 553.425 52.5379 545.134 65.3401C539.266 74.3203 539.433 82.5203 539.912 86.8391C539.917 89.3872 539.726 91.7213 538.901 94.0126C536.271 101.616 532.07 101.086 526.521 135.922C526.127 138.52 525.747 141.326 525.384 144.359C522.734 167.248 521.155 185.144 519.262 199.33C517.346 212.267 516.197 220.901 515.215 228.803C513.746 240.592 508.623 261.16 504.751 282.009C503.208 290.298 501.866 298.576 501.023 306.357C498.07 333.532 488.312 388.195 487.044 410.653C485.772 433.102 481.061 432.419 475.673 449.883Z" fill="white"/>
<path d="M742.159 256.099C745.436 258.768 748.039 247.02 752.043 248.695C756.029 250.371 756.607 256.609 761.188 255.224C765.779 253.841 770.322 258.128 772.384 255.577C774.428 253.025 774.607 260.774 777.509 259.069C780.409 257.365 782.157 258.387 784.674 260.921C787.185 263.455 794.942 265.659 797.79 262.588C800.639 259.516 803.821 264.91 805.746 266.2C806.347 266.602 806.817 267.149 807.176 267.716C807.329 267.957 807.396 268.459 807.391 268.953C807.391 268.953 807.391 268.954 807.391 268.954C807.386 269.569 807.27 270.174 807.071 270.25C806.105 270.619 804.658 271.602 802.944 273.821C799.741 277.957 799.437 273.354 795.145 275.461C790.853 277.569 788.262 281.827 783.251 279.03C778.242 276.235 777.02 287.798 769.961 281.205C762.893 274.614 762.1 286.712 755.024 288.294C747.943 289.876 739.049 283.175 734.779 283.72C730.521 284.264 724.781 285.663 718.749 284.059C712.709 282.455 705.235 286.482 698.566 283.631C695.787 282.44 692.521 281.119 689.338 279.808C684.872 277.981 680.632 276.175 678.095 274.771C673.728 272.359 672.674 271.815 668.477 273.289C666.06 274.136 662.742 273.338 659.938 270.223C658.527 268.655 658.847 266.472 660.267 265.428C662.343 263.9 664.05 264.921 665.121 262.193C667.262 256.741 668.16 254.649 670.88 257.823C673.564 260.995 674.845 253.785 676.426 254.615C678.003 255.445 677.987 259.698 685.981 256.421C687.201 255.934 688.261 255.5 689.338 255.113C695.249 252.897 698.868 252.192 701.427 251.523C704.458 250.737 710.818 254.431 715.754 253.104C720.704 251.776 730.765 253.013 734.829 250.842C738.887 248.67 738.901 253.431 742.159 256.099Z" fill="white"/>
<path d="M712.565 396.759C715.522 399.41 717.791 387.648 721.383 389.295C724.977 390.941 725.535 397.175 729.637 395.75C733.728 394.326 737.846 398.56 739.667 395.983C741.466 393.405 741.709 401.151 744.301 399.404C744.474 399.284 744.642 399.178 744.805 399.083C747.096 397.799 748.599 398.818 750.727 401.131C753.03 403.622 760.059 405.625 762.398 402.418C764.736 399.227 767.619 404.439 769.364 405.431C769.889 405.745 770.395 406.19 770.837 406.673C771.023 406.879 771.191 407.355 771.292 407.839C771.292 407.839 771.292 407.84 771.292 407.84C771.418 408.443 771.448 409.055 771.29 409.168C770.535 409.727 769.263 410.956 767.781 413.313C764.981 417.698 764.413 413.107 760.571 415.385C756.739 417.641 754.429 421.96 749.828 419.264C747.768 418.062 746.486 419.688 745.044 421.291C743.324 423.288 741.391 425.249 737.807 421.638C731.355 415.127 730.747 427.23 724.363 428.87C717.965 430.508 709.899 423.853 706.053 424.415C702.206 424.978 697.05 426.397 691.592 424.806C686.142 423.216 679.42 427.252 673.403 424.404C669.063 422.348 663.397 419.9 659.151 417.789C657.474 416.978 656.06 416.216 654.962 415.546C651.044 413.135 650.076 412.591 646.303 414.064C644.129 414.911 641.16 414.113 638.62 410.998C637.353 409.43 637.638 407.247 638.915 406.203C640.783 404.676 642.331 405.696 643.287 402.968C645.2 397.516 646.056 395.425 648.462 398.598C650.887 401.771 652.048 394.56 653.461 395.39C654.651 396.088 654.808 399.208 659.151 398.232C659.929 398.048 660.952 397.717 662.061 397.197C669.272 393.919 673.225 393.082 675.958 392.294C678.693 391.506 684.381 395.194 688.833 393.857C693.283 392.521 702.32 393.727 705.958 391.537C709.595 389.347 709.611 394.108 712.565 396.759Z" fill="white"/>
<path d="M1155.74 350.574C1155.56 355.38 1155.82 359.924 1156.59 363.756C1156.83 364.947 1157.14 366.175 1157.48 367.454C1157.66 368.096 1157.84 368.746 1158.04 369.457C1158.14 369.814 1158.24 370.185 1158.35 370.615C1158.46 371.109 1158.57 371.37 1158.72 372.659C1158.73 372.606 1158.74 372.511 1158.73 372.352C1158.73 372.273 1158.73 372.177 1158.72 372.06C1158.71 371.937 1158.7 371.838 1158.65 371.528C1158.6 371.248 1158.53 370.896 1158.39 370.426C1158.32 370.19 1158.23 369.924 1158.12 369.619C1158.06 369.467 1158 369.304 1157.93 369.131C1157.89 369.044 1157.85 368.955 1157.81 368.862C1157.79 368.827 1157.75 368.745 1157.71 368.65C1157.66 368.558 1157.62 368.464 1157.57 368.366C1156.78 366.938 1155.17 364.017 1150.63 362.189C1148.53 361.323 1145.39 361.101 1143.24 361.619C1141.01 362.103 1139.49 362.98 1138.45 363.702C1138.19 363.885 1137.96 364.064 1137.74 364.235C1137.53 364.403 1137.32 364.591 1137.25 364.65C1137.06 364.825 1136.88 364.991 1136.72 365.148C1136.41 365.461 1136.16 365.738 1135.95 365.983C1135.54 366.474 1135.28 366.841 1135.09 367.131C1134.98 367.291 1134.93 367.364 1134.88 367.44C1134.83 367.516 1134.79 367.585 1134.75 367.647C1134.67 367.773 1134.61 367.874 1134.56 367.958C1134.35 368.306 1134.32 368.302 1134.28 368.315C1134.18 368.237 1134.3 367.465 1134.36 366.813C1134.51 365.391 1134.66 363.735 1134.81 362.059C1135.1 358.67 1135.34 355.136 1135.67 351.478C1136.44 344.026 1137 336.722 1140.4 326.783C1142.15 321.848 1144.31 317.237 1146.88 312.693C1154.26 299.801 1160.04 292.89 1165.55 285.966C1173.65 275.64 1181.37 268.342 1192.81 250.911C1195.07 247.471 1197.35 244.094 1199.65 240.741C1209.43 226.636 1219.27 213.501 1229.55 202.152C1238.53 192.226 1246.83 184.422 1251.29 178.694C1255.14 173.777 1258.51 171.318 1262 169.313C1268.61 166.069 1272.79 162.278 1289.66 157.802C1292.11 157.403 1295.11 157.498 1297.97 158.419C1307.32 162.018 1309.64 167.887 1312.05 171.92C1314.25 176.2 1315.55 180.048 1316.62 183.714C1318.71 190.948 1319.69 197.86 1320.75 203.72C1321.85 208.975 1322.24 213.615 1322.7 218.829C1323.35 226.39 1324.94 239.319 1327.32 253.765C1330.24 272.013 1331.54 292.388 1334.3 307.603C1335.51 314.14 1337.04 319.847 1338.46 324.051C1339.44 326.934 1340.3 329.909 1341.04 332.954C1343.01 341.143 1344.11 349.372 1345.24 357.272L1345.22 357.202C1347.01 368.749 1348.02 379.624 1349.74 387.346C1349.83 387.746 1349.93 388.138 1350.01 388.508L1349.99 388.433C1351.08 392.434 1352.13 395.801 1352.73 398.473C1353.02 399.71 1352.8 400.441 1352.35 400.645C1352.35 400.645 1352.35 400.645 1352.35 400.646C1351.78 400.892 1350.86 400.323 1350.14 398.886C1348.89 396.38 1347.31 393.504 1345.67 390.032L1345.64 389.971C1343 383.7 1340.1 376.225 1336.48 368.001C1335.23 365.148 1334.2 362.583 1333.32 360.212L1333.3 360.142C1329.85 350.43 1329.17 343.946 1327.9 335.529C1326.96 329.02 1325.44 321.329 1322.97 309.237C1322.75 308.126 1322.52 306.96 1322.29 305.775C1318.63 286.734 1315.52 271.957 1311.59 257.006C1308.1 244.177 1305.44 229.7 1302.75 212.57C1302.55 211.415 1302.33 210.316 1302.12 209.403C1299.6 198.564 1297.89 191.474 1294.95 185.485C1293.56 182.605 1291.88 180.094 1290.53 179.03C1289.9 178.507 1289.37 178.497 1289.78 179.039C1290.11 179.599 1291.88 180.277 1292.8 180.278C1291 181.152 1286.02 184.392 1280.26 189.654C1273.73 195.544 1265.78 201.993 1256.31 209.889C1253.14 212.537 1250.35 215.13 1247.7 217.768C1233.99 231.76 1227.4 244.25 1221.46 255.96C1215.04 269.428 1206.87 284.52 1196.6 303.36C1195.69 305.166 1194.77 306.963 1193.79 308.871C1188.19 319.786 1181.61 331.569 1176.93 341.911C1174.89 346.513 1172.61 353.624 1170.49 360.272C1169.41 363.669 1168.33 367.106 1167.18 370.682C1166.59 372.48 1166.01 374.271 1165.28 376.35C1164.9 377.396 1164.54 378.446 1163.81 380.193C1163.7 380.443 1163.59 380.705 1163.46 380.986C1163.33 381.273 1163.21 381.532 1162.96 382.029C1162.73 382.489 1162.45 383.008 1162.06 383.66C1161.54 384.453 1160.79 385.849 1158.58 387.939C1157.32 389.026 1153.02 393.142 1145.04 392.856C1136.91 392.371 1132.32 387.246 1130.61 384.6C1130.14 383.883 1129.78 383.237 1129.48 382.654C1129.41 382.508 1129.34 382.365 1129.28 382.228C1129.24 382.155 1129.21 382.084 1129.18 382.013C1129.11 381.872 1129.05 381.734 1129 381.6C1128.77 381.066 1128.6 380.591 1128.45 380.162C1128.17 379.305 1128 378.625 1127.88 378.041C1127.82 377.749 1127.77 377.482 1127.73 377.233C1127.7 377.06 1127.68 376.921 1127.65 376.775C1127.61 376.489 1127.58 376.226 1127.56 375.98C1127.5 375.49 1127.47 375.065 1127.45 374.672C1127.5 375.254 1127.52 375.245 1127.53 375.265C1127.54 375.261 1127.53 375.18 1127.53 375.076C1127.51 374.867 1127.48 374.566 1127.45 374.25C1127.38 373.611 1127.3 372.891 1127.21 372.154C1127.05 370.67 1126.88 369.101 1126.74 367.458C1126.01 357.45 1126.29 349.548 1125.98 342.281C1125.63 334.261 1125.83 327.539 1125.46 322.164C1124.91 309.362 1124.88 301.307 1124.03 293.583C1122.86 282.343 1121.06 269.931 1118.49 256.653C1115.22 239.999 1111.65 220.463 1107.63 203.429C1104.96 192.979 1101 179.694 1099.89 179.377C1099.89 179.366 1099.88 179.345 1099.87 179.322C1099.79 179.153 1099.64 179.079 1100.05 179.141C1100.41 179.207 1101.39 179.161 1101.91 178.924C1095.24 180.961 1089.01 184.664 1086.15 188.53C1080.25 196.104 1075.76 203.47 1073.68 210.96C1068.96 226.526 1065.49 239.588 1062.69 254.878C1059.78 269.675 1056.91 283.572 1054.61 297.142C1053.78 301.958 1053.05 306.955 1052.49 312.062C1050.05 335.079 1047.56 361.226 1046.49 384.776C1046.44 386.623 1046.42 388.536 1046.42 390.357C1046.42 391.266 1046.43 392.171 1046.44 392.965C1046.45 393.353 1046.47 393.746 1046.46 393.923C1046.46 393.963 1046.46 393.985 1046.45 393.95C1046.43 393.908 1046.43 393.851 1046.33 393.479C1046.25 393.228 1046.26 393.107 1045.86 392.154C1045.76 391.926 1045.63 391.656 1045.45 391.322C1045.13 390.778 1044.7 390.028 1043.67 389.016C1043.12 388.501 1042.56 387.999 1041.41 387.376C1039.95 386.572 1037.65 385.994 1035.48 386.297C1033.36 386.522 1031.39 387.691 1030.73 388.233C1030.06 388.736 1029.58 389.22 1029.21 389.645C1028.48 390.499 1028.14 391.127 1027.89 391.608C1027.71 391.97 1027.64 392.141 1027.55 392.353C1027.39 392.743 1027.3 393.033 1027.25 393.217C1027.17 393.507 1027.13 393.683 1027.11 393.806C1029.39 385.68 1031.63 379.471 1033.07 373.152C1036.9 357.763 1037.37 342.8 1038.4 332.019C1038.66 328.749 1038.88 325.838 1039.08 322.955C1041.04 294.974 1041.36 284.998 1040.05 254.108C1039.47 240.434 1039.7 223.105 1040.98 206.179C1041.53 198.885 1042.27 191.687 1043.26 184.855C1045.01 173.382 1047.08 176.098 1048.04 187.555C1048.61 194.303 1048.8 200.521 1048.98 206.196C1049.26 214.637 1049.54 221.703 1051.17 226.913C1056.61 244.274 1058.69 251.654 1055.5 273.561C1052.3 295.454 1059.5 305.807 1058.63 318.596C1058.52 320.198 1058.35 321.689 1058.15 323.019C1056.39 331.4 1056.7 336.673 1052.76 376.542C1051.85 383.227 1050.02 390.89 1048.75 397.927C1048.73 398.077 1048.7 398.233 1048.69 398.369C1048.62 398.682 1048.55 399.029 1048.4 399.527C1048.29 399.887 1048.16 400.315 1047.91 400.906C1047.67 401.276 1047.43 402.726 1044.81 405.226C1044.45 405.549 1044.14 405.806 1043.55 406.216C1042.76 406.755 1041.76 407.292 1040.57 407.689C1038.21 408.534 1035.02 408.49 1032.74 407.634C1030.15 406.627 1029.69 406.046 1028.8 405.353C1028.03 404.684 1027.51 404.078 1027.11 403.558C1026.71 403.036 1026.43 402.593 1026.21 402.21C1026.08 401.982 1026.06 401.936 1025.99 401.818C1025.94 401.715 1025.89 401.616 1025.84 401.521C1025.65 401.142 1025.52 400.829 1025.41 400.555C1025.3 400.288 1025.21 400.033 1025.16 399.859C1025.11 399.712 1025.06 399.578 1025.03 399.454C1024.95 399.206 1024.9 398.996 1024.85 398.808C1024.56 397.588 1024.53 397.272 1024.45 396.787C1024.31 395.954 1024.24 395.356 1024.16 394.756C1024.01 393.583 1023.9 392.53 1023.8 391.489C1023.59 389.411 1023.41 387.439 1023.26 385.427C1021.62 353.166 1022.15 329.659 1022.47 310.411C1022.93 293.354 1024.71 280.413 1026.19 269.66C1027.01 263.81 1028.48 256.509 1030.18 248.66C1032.87 235.123 1038.36 217.093 1043.84 201.816C1048.01 189.013 1055.55 178.348 1062.34 169.722C1067.48 163.21 1073.54 158.791 1079.34 155.399C1083.21 153.155 1087.51 151.184 1092.17 149.553C1102.34 145.871 1113.99 149.593 1120.86 155.874C1135.6 171.349 1134.72 183.429 1138.82 194.689C1143.96 215.203 1147.03 233.7 1150.41 251.059C1153.39 266.825 1155.28 280.774 1156.77 290.534C1158.91 304.469 1158.83 313.792 1158.42 318.487C1158.38 326.363 1156.94 331.785 1156.29 339.54C1156.11 342.845 1155.89 346.455 1155.74 350.574Z" fill="white"/>
<path d="M1495.81 304.962C1498.91 299.587 1500.51 294.038 1501.6 288.279C1503.97 275.758 1502.99 263.649 1508.88 248.548C1509.33 247.422 1509.77 246.355 1510.21 245.311C1515.24 233.333 1520.28 227.815 1524.95 221.112C1527.51 217.496 1529.88 213.147 1535.41 207.216C1537.18 205.718 1538.22 203.388 1545.19 201.708C1548.58 200.978 1553.45 202.108 1556.05 203.998C1558.68 205.769 1559.98 207.597 1560.83 208.842C1563.98 214.094 1564.17 216.578 1565.06 219.662C1569.33 239.407 1567.33 256.329 1568.47 268.262C1569.23 275.837 1570.34 282.352 1572 286.587C1576.54 298.029 1569.12 300.63 1573.89 317.266C1575.29 322.118 1576.37 326.435 1577.21 330.488C1579.24 340.063 1579.92 348.094 1581.58 357.915C1582.3 361.702 1583.7 366.898 1587.43 372.767C1590.9 378.888 1602.48 384.236 1612.49 387.187C1619.12 389.139 1626.99 388.315 1633.27 388.25L1631.41 388.455C1632.93 387.794 1634.32 386.885 1635.42 385.971C1645.44 377.437 1659.8 367.576 1668.94 360.123L1668.95 360.104C1669.89 359.344 1670.75 358.616 1671.55 357.908C1674.23 355.516 1676.48 353.728 1678.32 352.445C1679.1 351.901 1679.75 351.902 1680.13 352.22C1680.13 352.221 1680.13 352.221 1680.13 352.221C1680.6 352.622 1680.63 353.519 1679.92 354.469C1678.07 356.949 1675.77 360.168 1673.19 363.956L1673.2 363.941C1671 367.242 1668.6 371.014 1666 375.182C1656.27 389.242 1653.01 391.286 1634.64 399.577L1632.53 399.809C1629.93 399.715 1626.94 399.824 1623.25 399.992C1618.67 400.187 1613.86 400.29 1608.9 399.285C1597.13 396.495 1586.05 396.45 1573.6 382.729C1568.2 376.163 1563.89 366.299 1561.92 356.158C1560.12 347.15 1558.43 340.55 1556.44 334.42C1551.67 319.459 1544.71 308.389 1544.52 277.1C1544.52 275.175 1544.51 273.327 1544.48 271.539C1544.56 255.605 1544.1 246.582 1541.93 238.08C1540.9 233.928 1539.59 230.048 1538.04 226.721C1537.3 225.171 1536.29 223.391 1535.85 223.71C1535.79 223.864 1535.73 224.134 1536.21 225.105C1536.7 225.884 1537.48 227.921 1541.8 230.115C1543.8 231.099 1546.81 231.693 1549.27 231.461C1551.51 231.318 1553.61 230.532 1554.6 230.059C1556.9 228.918 1557.46 228.304 1557.95 227.986C1557.86 229.008 1556.95 231.407 1555.73 235.191C1554.68 238.202 1553.53 241.324 1552.32 244.596C1550.77 248.802 1549.28 252.971 1547.92 257.238C1543.62 271.049 1537.43 286.784 1530.94 300.143C1520.24 322.52 1510.12 342.554 1503.8 356.501C1503.1 357.989 1502.41 359.494 1501.32 361.451C1493.46 374.582 1487.99 391.189 1469.35 409.529C1462.77 415.967 1445.75 430.733 1427.49 429.491C1426.79 429.478 1426.13 429.466 1425.42 429.456C1420.79 429.373 1416.07 429.565 1410.39 429.666C1407.48 429.678 1404.42 429.783 1399.96 429.129C1395.94 428.665 1387.53 425.922 1383.06 419.105C1366.13 389.15 1370.1 364.502 1370.51 339.571C1370.97 333.504 1371.15 327.983 1372.13 320.53C1372.52 317.754 1373.16 314.585 1374.03 311.642C1379.96 290.87 1391.56 261.312 1411.4 245.506C1425.32 233.302 1438.67 223.511 1448.32 217.653C1450.54 216.301 1452.65 215.081 1454.65 213.987C1468.44 205.744 1478.43 206.513 1489.94 205.603C1494.61 205.378 1499.84 205.01 1506.35 204.487C1520.77 203.325 1540.67 203.749 1557.48 206.655C1565.98 208.127 1564.04 210.325 1555.59 211.475C1543.19 213.165 1532.98 212.33 1526.62 215.176C1513.97 220.871 1508.56 223.071 1492.39 220.273C1491.67 220.15 1490.97 220.047 1490.28 219.963C1483.39 219.028 1478.46 220.767 1475.26 222.873C1471.91 225.067 1471.04 227.071 1467.81 228.67C1467 229.083 1466.15 229.482 1465.25 229.879C1459.7 232.539 1453 231.553 1426.79 260.794C1426.36 261.292 1425.94 261.796 1425.52 262.306C1408.61 282.982 1407.38 302.771 1403.83 318.691C1402.94 323.85 1403.61 332.761 1403.52 339.525C1403.52 339.995 1403.52 340.464 1403.51 340.97C1403.5 355.249 1399.6 389.004 1408.05 401.877C1407.59 401.165 1406.66 400.258 1405.88 399.781C1405.1 399.285 1404.62 399.153 1404.58 399.113C1404.48 399.066 1405.72 399.179 1407.16 399.1C1411.48 398.922 1418.8 398.212 1426.73 397.924C1433.83 397.544 1437.14 395.148 1447.87 385.134C1457.8 375.851 1467.26 356.331 1473.08 345.065C1473.32 344.457 1473.81 343.258 1474.19 342.213C1481.56 320.816 1485.94 321.803 1495.81 304.962Z" fill="white"/>
<path d="M470.263 635.071C475.705 636.884 478.334 625.609 484.632 625.528C484.873 625.525 485.119 625.539 485.37 625.57C492.188 626.441 493.814 632.526 501.169 630.402C508.58 628.287 516.409 632.028 519.581 629.271C522.791 626.512 523.572 634.221 528.202 632.273C532.848 630.336 535.783 631.244 539.971 633.639C544.181 636.01 556.746 637.975 561.295 634.877C565.857 631.757 571.072 637.123 574.19 638.396C575.162 638.792 575.927 639.335 576.514 639.899C576.763 640.139 576.878 640.64 576.878 641.134C576.878 641.134 576.878 641.135 576.878 641.135C576.878 641.75 576.7 642.356 576.38 642.433C574.83 642.811 572.513 643.807 569.782 646.042C564.7 650.215 564.126 645.607 557.283 647.798C550.443 650.005 546.468 654.334 538.419 651.813C530.302 649.338 529.065 660.927 517.558 655.095C505.875 649.374 505.646 661.549 494.939 664.311C493.194 664.769 491.364 665.025 489.458 665.149C479.687 665.766 468.255 662.81 462.697 664.145C456.072 665.73 447.305 668.592 437.502 668.667C427.685 668.738 416.608 674.832 405.514 673.946C399.421 673.463 391.994 672.997 385.25 672.448L384.972 672.492C379.414 671.883 374.411 671.235 371.096 670.588C363.775 669.149 362.016 668.838 355.462 671.135C351.689 672.444 346.152 672.304 341.311 669.543C338.85 668.109 339.407 665.917 341.481 664.722C344.586 662.941 347.43 663.641 348.801 660.745C351.586 654.941 352.678 652.704 357.369 655.311C362.035 657.914 363.119 650.491 365.718 650.978C368.343 651.452 368.85 655.711 381.114 650.645C381.334 650.554 381.554 650.464 381.774 650.375L381.44 650.428C393.048 645.219 399.731 643.139 404.316 641.532C409.009 639.883 419.722 641.7 427.394 639.008C435.06 636.295 451.397 634.808 457.622 631.661C463.852 628.496 464.592 633.204 470.263 635.071Z" fill="white"/>
</svg>
